<?xml version="1.0" encoding="UTF-8" standalone="no"?>
<!-- Created with Inkscape (http://www.inkscape.org/) -->

<svg
   xmlns:dc="http://purl.org/dc/elements/1.1/"
   xmlns:cc="http://creativecommons.org/ns#"
   xmlns:rdf="http://www.w3.org/1999/02/22-rdf-syntax-ns#"
   xmlns:svg="http://www.w3.org/2000/svg"
   xmlns="http://www.w3.org/2000/svg"
   xmlns:sodipodi="http://sodipodi.sourceforge.net/DTD/sodipodi-0.dtd"
   xmlns:inkscape="http://www.inkscape.org/namespaces/inkscape"
   width="210mm"
   height="297mm"
   viewBox="0 0 744.09448819 1052.3622047"
   id="svg2"
   version="1.1"
   inkscape:version="0.91 r13725"
   sodipodi:docname="OM.svg">
  <defs
     id="defs4" />
  <sodipodi:namedview
     id="base"
     pagecolor="#ffffff"
     bordercolor="#666666"
     borderopacity="1.0"
     inkscape:pageopacity="0.0"
     inkscape:pageshadow="2"
     inkscape:zoom="0.49497475"
     inkscape:cx="791.78919"
     inkscape:cy="612.87294"
     inkscape:document-units="px"
     inkscape:current-layer="layer1"
     showgrid="false"
     inkscape:window-width="1440"
     inkscape:window-height="838"
     inkscape:window-x="-8"
     inkscape:window-y="-8"
     inkscape:window-maximized="1" />
  <metadata
     id="metadata7">
    <rdf:RDF>
      <cc:Work
         rdf:about="">
        <dc:format>image/svg+xml</dc:format>
        <dc:type
           rdf:resource="http://purl.org/dc/dcmitype/StillImage" />
        <dc:title />
      </cc:Work>
    </rdf:RDF>
  </metadata>
  <g
     inkscape:label="Capa 1"
     inkscape:groupmode="layer"
     id="layer1">
    <path
       style="fill:#000000;fill-rule:evenodd;stroke:#000000;stroke-width:1.39838684px;stroke-linecap:butt;stroke-linejoin:miter;stroke-opacity:1"
       d="m 86.158661,259.3348 51.690379,86.46275 c 94.48317,-57.29065 150.23664,-56.43433 177.41472,-33.01532 15.47096,13.33114 27.16763,31.8547 2.74941,59.43841 -19.18079,21.66733 -55.06511,32.22771 -139.21137,23.01989 2.87068,45.49413 37.09059,102.95626 49.44297,113.86864 136.08119,-36.43123 171.13514,143.92976 33.46141,164.31045 C 22.83295,692.62379 48.708634,455.381 21.982701,454.67197 -7.8968884,568.12656 91.748059,717.55745 102.88937,714.87179 c 84.83716,95.70594 240.23077,86.22691 290.16528,-16.48097 23.02086,-22.37109 39.35811,-113.56166 -7.31999,-195.18906 37.40455,-4.81956 69.83283,6.75833 88.41023,-4.9502 78.24769,-49.31611 75.79545,-155.23915 151.1135,-144.66253 56.64962,-6.54866 69.66555,89.34344 58.46095,141.53627 -5.60194,91.40707 -191.92625,185.5028 -218.74765,25.97004 -24.12039,34.2371 -7.27649,134.86219 37.20581,175.3211 40.71421,32.31298 120.60453,41.51596 175.32971,-19.32695 106.17984,-129.06248 48.5996,-363.73977 -65.35102,-392.67949 -61.7285,-6.36772 -114.1009,5.97675 -143.93951,63.38883 -21.09901,32.94591 -42.19802,71.10561 -63.29704,98.73177 -22.49793,24.91135 -53.86663,25.59274 -98.96551,-2.23147 C 457.516,349.65085 380.17868,86.955959 112.50421,238.75176 c -7.86351,5.9194 -7.8737,5.13987 -26.345549,20.58304 z"
       id="path3365"
       inkscape:connector-curvature="0"
       sodipodi:nodetypes="ccsscccccccsccccccccccc" />
    <path
       style="fill:#000000;fill-rule:evenodd;stroke:#000000;stroke-width:1.39838684px;stroke-linecap:butt;stroke-linejoin:miter;stroke-opacity:1"
       d="M 328.06525,95.667529 C 321.7731,180.00263 390.85538,258.65918 451.66637,269.41537 530.54552,285.2004 602.3095,258.4941 667.08544,201.61133 657.53306,170.20033 633.97278,152.33378 616.93869,128.15696 606.54406,109.2608 461.24158,309.47258 328.06525,95.667529 Z"
       id="path3376"
       inkscape:connector-curvature="0"
       sodipodi:nodetypes="ccccc" />
    <path
       style="fill:#000000;fill-rule:evenodd;stroke:#000000;stroke-width:1.39838684px;stroke-linecap:butt;stroke-linejoin:miter;stroke-opacity:1"
       d="m 463.67332,45.520797 72.04179,64.272573 c -23.385,24.71689 -48.55862,54.79962 -68.51031,69.2166 -22.72885,-16.38803 -52.98718,-32.26196 -67.09775,-62.85999 z"
       id="path3378"
       inkscape:connector-curvature="0"
       sodipodi:nodetypes="ccccc" />
    <flowRoot
       xml:space="preserve"
       id="flowRoot3336"
       style="font-style:normal;font-weight:normal;font-size:40px;line-height:125%;font-family:sans-serif;letter-spacing:0px;word-spacing:0px;fill:#000000;fill-opacity:1;stroke:none;stroke-width:1px;stroke-linecap:butt;stroke-linejoin:miter;stroke-opacity:1"
       transform="translate(343.45186,82.832508)"><flowRegion
         id="flowRegion3338"><rect
           id="rect3340"
           width="496.99506"
           height="96.97464"
           x="38.385796"
           y="874.57538" /></flowRegion><flowPara
         id="flowPara3342">Daniel Velez Arias</flowPara><flowPara
         id="flowPara3344">10-07</flowPara></flowRoot>  </g>
</svg>
