<svg width="31" height="32" viewBox="0 0 31 32" fill="none" xmlns="http://www.w3.org/2000/svg">
<path fill-rule="evenodd" clip-rule="evenodd" d="M3.84335 9.71717L5.95078 13.2423C9.80286 10.9065 12.0759 10.9414 13.184 11.8962C13.8147 12.4397 14.2916 13.1949 13.2961 14.3195C12.5141 15.2029 11.0511 15.6335 7.62042 15.2581C7.73746 17.1129 9.13261 19.4556 9.63622 19.9005C15.1843 18.4152 16.6134 25.7685 11.0004 26.5994C1.26156 27.3824 2.31651 17.71 1.2269 17.6811C0.00870222 22.3066 4.07124 28.3989 4.52547 28.2895C7.98429 32.1914 14.3197 31.8049 16.3555 27.6175C17.2941 26.7055 17.9602 22.9876 16.0571 19.6596C17.5821 19.4632 18.9042 19.9352 19.6616 19.4578C22.8518 17.4472 22.7518 13.1287 25.8225 13.5599C28.1321 13.2929 28.6628 17.2025 28.206 19.3304C27.9776 23.057 20.3811 26.8933 19.2876 20.3892C18.3042 21.785 18.9909 25.8875 20.8045 27.537C22.4644 28.8544 25.7215 29.2296 27.9527 26.7491C32.2816 21.4872 29.9341 11.9194 25.2883 10.7395C22.7716 10.4799 20.6364 10.9832 19.4199 13.3239C18.5597 14.6671 17.6995 16.2228 16.8393 17.3492C15.922 18.3648 14.6431 18.3926 12.8044 17.2582C18.9836 13.3994 15.8306 2.68927 4.91746 8.878C4.59687 9.11934 4.59645 9.08755 3.84335 9.71717Z" fill="white" stroke="white" stroke-width="0.3"/>
<path fill-rule="evenodd" clip-rule="evenodd" d="M13.7059 3.04443C13.4494 6.48278 16.2659 9.68962 18.7451 10.1281C21.961 10.7717 24.8869 9.68289 27.5278 7.36377C27.1383 6.08314 26.1778 5.35472 25.4833 4.36903C25.0595 3.59863 19.1355 11.7613 13.7059 3.04443Z" fill="white" stroke="white" stroke-width="0.3"/>
<path fill-rule="evenodd" clip-rule="evenodd" d="M19.2347 1L22.1718 3.6204C21.2184 4.62811 20.1921 5.85458 19.3786 6.44236C18.452 5.77422 17.2184 5.12704 16.6431 3.87956L19.2347 1Z" fill="white" stroke="white" stroke-width="0.3"/>
</svg>
