<svg width="197" height="202" viewBox="0 0 197 202" fill="none" xmlns="http://www.w3.org/2000/svg">
<path fill-rule="evenodd" clip-rule="evenodd" d="M19.1453 58.6959L33.3352 82.4315C59.2726 66.7042 74.578 66.9393 82.0389 73.3682C86.2859 77.0279 89.4969 82.1129 82.7936 89.6852C77.5281 95.6333 67.6772 98.5323 44.5775 96.0046C45.3656 108.494 54.7596 124.268 58.1505 127.264C95.5073 117.263 105.13 166.775 67.3363 172.37C1.76117 177.642 8.86453 112.514 1.52776 112.32C-6.67474 143.465 20.6796 184.487 23.7381 183.749C47.0275 210.022 89.686 207.42 103.394 179.225C109.714 173.084 114.198 148.05 101.384 125.642C111.653 124.319 120.555 127.497 125.655 124.283C147.135 110.745 146.462 81.667 167.138 84.5705C182.689 82.7727 186.263 109.097 183.187 123.425C181.649 148.518 130.499 174.349 123.136 130.554C116.515 139.953 121.139 167.576 133.35 178.683C144.527 187.553 166.458 190.08 181.481 173.377C210.63 137.947 194.823 73.524 163.541 65.5795C146.596 63.8315 132.219 67.2203 124.027 82.9809C118.235 92.0252 112.443 102.501 106.651 110.085C100.475 116.923 91.8637 117.11 79.4832 109.472C121.09 83.4894 99.8592 11.3747 26.3776 53.0455C24.2189 54.6705 24.2161 54.4565 19.1453 58.6959Z" fill="#0382B7" fill-opacity="0.2"/>
<path fill-rule="evenodd" clip-rule="evenodd" d="M85.5531 13.7662C83.8258 36.9178 102.79 58.5105 119.484 61.4632C141.138 65.7965 160.838 58.4651 178.62 42.8498C175.998 34.2269 169.53 29.3222 164.854 22.6852C162.001 17.4978 122.112 72.4597 85.5531 13.7662Z" fill="#0382B7" fill-opacity="0.2"/>
<path fill-rule="evenodd" clip-rule="evenodd" d="M122.78 0L142.557 17.644C136.137 24.4293 129.227 32.6875 123.75 36.6453C117.51 32.1464 109.204 27.7887 105.33 19.389L122.78 0Z" fill="#0382B7" fill-opacity="0.2"/>
</svg>
